<?xml version="1.0" standalone="no"?>
<!DOCTYPE svg PUBLIC "-//W3C//DTD SVG 20010904//EN"
 "http://www.w3.org/TR/2001/REC-SVG-20010904/DTD/svg10.dtd">
<svg version="1.0" xmlns="http://www.w3.org/2000/svg"
 width="260.000000pt" height="260.000000pt" viewBox="0 0 260.000000 260.000000"
 preserveAspectRatio="xMidYMid meet">
<metadata>
Created by potrace 1.14, written by Peter Selinger 2001-2017
</metadata>
<g transform="translate(0.000000,260.000000) scale(0.100000,-0.100000)"
fill="#000000" stroke="none">
<path d="M1169 2596 c-2 -2 -30 -7 -62 -10 -84 -10 -196 -41 -294 -81 -389
-158 -676 -491 -781 -904 -24 -97 -27 -123 -27 -296 0 -203 6 -243 57 -405
133 -417 487 -751 915 -862 154 -40 363 -49 523 -24 281 44 530 176 733 385
253 261 376 579 364 936 -3 77 -8 154 -11 170 -4 17 -11 55 -17 85 -17 86 -72
231 -123 324 -185 339 -507 579 -886 662 -68 15 -379 31 -391 20z m1025 -406
c37 -14 50 -45 36 -81 -14 -32 -28 -38 -110 -41 l-55 -3 -122 -530 c-164 -714
-160 -695 -185 -723 -13 -14 -41 -33 -63 -43 -37 -17 -73 -19 -472 -19 l-432
0 -20 26 c-27 34 -26 50 4 79 l24 25 424 0 c458 0 438 -2 451 55 4 17 9 38 12
48 5 16 -20 17 -421 17 -465 0 -473 1 -513 57 -25 35 -192 672 -192 733 0 23
7 54 15 70 32 62 13 60 699 60 l625 0 22 95 c24 107 44 139 103 166 44 20 129
25 170 9z m-1183 -1473 c73 -49 102 -144 64 -216 -53 -103 -190 -126 -271 -45
-58 58 -66 139 -22 212 42 70 161 95 229 49z m639 1 c48 -33 72 -70 77 -121 7
-60 -11 -110 -52 -146 -103 -91 -256 -38 -281 97 -8 40 8 99 36 134 46 60 158
77 220 36z"/>
<path d="M690 1774 c0 -14 19 -94 51 -216 l10 -38 79 0 c43 0 81 3 83 8 2 4
-1 64 -6 135 l-10 127 -104 0 c-87 0 -103 -2 -103 -16z"/>
<path d="M1026 1738 c3 -29 8 -89 12 -133 l7 -80 90 0 90 0 0 132 0 133 -102
0 -102 0 5 -52z"/>
<path d="M1350 1655 l0 -135 105 0 c121 0 110 -11 120 125 3 44 9 95 12 113
l5 32 -121 0 -121 0 0 -135z"/>
<path d="M1706 1688 c-4 -57 -10 -118 -13 -135 l-5 -33 60 0 60 0 27 113 c14
61 28 122 32 135 5 21 3 22 -75 22 l-79 0 -7 -102z"/>
<path d="M790 1384 c0 -18 46 -202 60 -238 8 -23 15 -26 56 -26 l47 0 -6 58
c-4 31 -9 94 -13 140 l-7 82 -68 0 c-56 0 -69 -3 -69 -16z"/>
<path d="M1064 1303 c4 -54 9 -117 12 -141 l6 -43 72 3 71 3 0 135 0 135 -84
3 -84 3 7 -98z"/>
<path d="M1357 1393 c-4 -3 -7 -66 -7 -140 l0 -133 89 0 88 0 6 63 c4 34 9 97
13 140 l7 77 -95 0 c-52 0 -98 -3 -101 -7z"/>
<path d="M1677 1348 c-3 -29 -9 -92 -13 -140 l-7 -88 30 0 30 0 27 118 c14 64
29 127 32 140 6 21 3 22 -43 22 l-50 0 -6 -52z"/>
<path d="M896 604 c-9 -8 -16 -22 -16 -29 0 -18 28 -45 45 -45 8 0 22 11 31
25 16 24 16 27 -1 45 -22 24 -38 25 -59 4z"/>
<path d="M1538 609 c-21 -12 -24 -49 -6 -67 19 -19 45 -14 62 10 13 19 14 25
2 43 -16 24 -35 28 -58 14z"/>
</g>
</svg>
